<?xml version="1.0"?>
  <!DOCTYPE svg PUBLIC "-//W3C//DTD SVG 1.1//EN" "http://www.w3.org/Graphics/SVG/1.1/DTD/svg11.dtd">
  <svg xmlns="http://www.w3.org/2000/svg" xmlns:xlink="http://www.w3.org/1999/xlink" viewbox="0.29197 -2.39967 -1.79769e+308 -1.79769e+308">
<circle cx="514" cy="339" r="1.37327" stroke="black" strokewidth="1" fill="white" />
<circle cx="93" cy="325" r="2.57649" stroke="black" strokewidth="1" fill="white" />
<circle cx="5" cy="240" r="3.39537" stroke="black" strokewidth="1" fill="white" />
<circle cx="9" cy="519" r="1.36888" stroke="black" strokewidth="1" fill="white" />
<circle cx="215" cy="408" r="2.80428" stroke="black" strokewidth="1" fill="white" />
<circle cx="111" cy="58" r="3.80691" stroke="black" strokewidth="1" fill="white" />
<circle cx="569" cy="177" r="2.01975" stroke="black" strokewidth="1" fill="white" />
<circle cx="446" cy="3" r="3.91256" stroke="black" strokewidth="1" fill="white" />
<circle cx="94" cy="390" r="3.44426" stroke="black" strokewidth="1" fill="white" />
<circle cx="608" cy="361" r="2.6491" stroke="black" strokewidth="1" fill="white" />
<circle cx="181" cy="334" r="2.79211" stroke="black" strokewidth="1" fill="white" />
<circle cx="246" cy="41" r="1.47874" stroke="black" strokewidth="1" fill="white" />
<circle cx="411" cy="335" r="3.90533" stroke="black" strokewidth="1" fill="white" />
<circle cx="291" cy="392" r="1.81814" stroke="black" strokewidth="1" fill="white" />
<circle cx="93" cy="519" r="2.48183" stroke="black" strokewidth="1" fill="white" />
<circle cx="183" cy="106" r="2.63894" stroke="black" strokewidth="1" fill="white" />
<circle cx="418" cy="63" r="1.78884" stroke="black" strokewidth="1" fill="white" />
<circle cx="129" cy="67" r="1.00586" stroke="black" strokewidth="1" fill="white" />
<circle cx="216" cy="111" r="3.72002" stroke="black" strokewidth="1" fill="white" />
<circle cx="40" cy="367" r="1.59346" stroke="black" strokewidth="1" fill="white" />
<circle cx="676" cy="58" r="1.86053" stroke="black" strokewidth="1" fill="white" />
<circle cx="556" cy="173" r="3.04563" stroke="black" strokewidth="1" fill="white" />
<circle cx="428" cy="366" r="1.91418" stroke="black" strokewidth="1" fill="white" />
<circle cx="386" cy="273" r="3.32551" stroke="black" strokewidth="1" fill="white" />
<circle cx="307" cy="415" r="3.3083" stroke="black" strokewidth="1" fill="white" />
<circle cx="379" cy="326" r="2.80978" stroke="black" strokewidth="1" fill="white" />
<circle cx="24" cy="229" r="3.38942" stroke="black" strokewidth="1" fill="white" />
<circle cx="677" cy="498" r="3.6878" stroke="black" strokewidth="1" fill="white" />
<circle cx="241" cy="309" r="3.74136" stroke="black" strokewidth="1" fill="white" />
<circle cx="591" cy="21" r="1.1214" stroke="black" strokewidth="1" fill="white" />
<circle cx="546" cy="194" r="1.15867" stroke="black" strokewidth="1" fill="white" />
<circle cx="77" cy="363" r="3.45808" stroke="black" strokewidth="1" fill="white" />
<circle cx="24" cy="348" r="1.08487" stroke="black" strokewidth="1" fill="white" />
<circle cx="438" cy="425" r="3.46055" stroke="black" strokewidth="1" fill="white" />
<circle cx="371" cy="86" r="1.23173" stroke="black" strokewidth="1" fill="white" />
<circle cx="126" cy="190" r="1.89221" stroke="black" strokewidth="1" fill="white" />
<circle cx="654" cy="390" r="3.0286" stroke="black" strokewidth="1" fill="white" />
<circle cx="152" cy="138" r="3.74566" stroke="black" strokewidth="1" fill="white" />
<circle cx="272" cy="188" r="1.86612" stroke="black" strokewidth="1" fill="white" />
<circle cx="308" cy="93" r="3.80563" stroke="black" strokewidth="1" fill="white" />
<circle cx="583" cy="447" r="1.18274" stroke="black" strokewidth="1" fill="white" />
<circle cx="256" cy="357" r="2.9743" stroke="black" strokewidth="1" fill="white" />
<circle cx="19" cy="236" r="3.66884" stroke="black" strokewidth="1" fill="white" />
<circle cx="247" cy="251" r="3.71654" stroke="black" strokewidth="1" fill="white" />
<circle cx="96" cy="306" r="3.60109" stroke="black" strokewidth="1" fill="white" />
<circle cx="508" cy="160" r="3.00131" stroke="black" strokewidth="1" fill="white" />
<circle cx="282" cy="176" r="3.95322" stroke="black" strokewidth="1" fill="white" />
<circle cx="270" cy="193" r="2.08008" stroke="black" strokewidth="1" fill="white" />
<circle cx="177" cy="293" r="1.82354" stroke="black" strokewidth="1" fill="white" />
<circle cx="623" cy="379" r="1.23704" stroke="black" strokewidth="1" fill="white" />
<circle cx="30" cy="270" r="2.25788" stroke="black" strokewidth="1" fill="white" />
<circle cx="107" cy="68" r="2.14655" stroke="black" strokewidth="1" fill="white" />
<circle cx="427" cy="463" r="2.09848" stroke="black" strokewidth="1" fill="white" />
<circle cx="62" cy="24" r="1.54714" stroke="black" strokewidth="1" fill="white" />
<circle cx="166" cy="199" r="3.43474" stroke="black" strokewidth="1" fill="white" />
<circle cx="679" cy="510" r="3.47227" stroke="black" strokewidth="1" fill="white" />
<circle cx="571" cy="40" r="2.93722" stroke="black" strokewidth="1" fill="white" />
<circle cx="217" cy="29" r="1.13395" stroke="black" strokewidth="1" fill="white" />
<circle cx="93" cy="62" r="3.21052" stroke="black" strokewidth="1" fill="white" />
<circle cx="583" cy="321" r="3.61757" stroke="black" strokewidth="1" fill="white" />
<circle cx="390" cy="49" r="3.66015" stroke="black" strokewidth="1" fill="white" />
<circle cx="548" cy="280" r="1.68291" stroke="black" strokewidth="1" fill="white" />
<circle cx="338" cy="284" r="2.63042" stroke="black" strokewidth="1" fill="white" />
<circle cx="599" cy="68" r="3.06101" stroke="black" strokewidth="1" fill="white" />
<circle cx="78" cy="221" r="1.08808" stroke="black" strokewidth="1" fill="white" />
<circle cx="327" cy="209" r="1.55254" stroke="black" strokewidth="1" fill="white" />
<circle cx="566" cy="155" r="3.28779" stroke="black" strokewidth="1" fill="white" />
<circle cx="84" cy="423" r="3.86129" stroke="black" strokewidth="1" fill="white" />
<circle cx="132" cy="247" r="2.03778" stroke="black" strokewidth="1" fill="white" />
<circle cx="385" cy="191" r="2.29157" stroke="black" strokewidth="1" fill="white" />
<circle cx="676" cy="425" r="2.74752" stroke="black" strokewidth="1" fill="white" />
<circle cx="471" cy="185" r="3.09919" stroke="black" strokewidth="1" fill="white" />
<circle cx="494" cy="118" r="2.77517" stroke="black" strokewidth="1" fill="white" />
<circle cx="51" cy="508" r="1.2624" stroke="black" strokewidth="1" fill="white" />
<circle cx="68" cy="263" r="2.06928" stroke="black" strokewidth="1" fill="white" />
<circle cx="384" cy="29" r="1.62899" stroke="black" strokewidth="1" fill="white" />
<circle cx="51" cy="366" r="2.08438" stroke="black" strokewidth="1" fill="white" />
<circle cx="12" cy="490" r="3.65511" stroke="black" strokewidth="1" fill="white" />
<circle cx="169" cy="217" r="2.83679" stroke="black" strokewidth="1" fill="white" />
<circle cx="40" cy="241" r="2.17338" stroke="black" strokewidth="1" fill="white" />
<circle cx="109" cy="463" r="2.10846" stroke="black" strokewidth="1" fill="white" />
<circle cx="640" cy="75" r="1.66863" stroke="black" strokewidth="1" fill="white" />
<circle cx="525" cy="24" r="2.59801" stroke="black" strokewidth="1" fill="white" />
<circle cx="332" cy="519" r="2.2891" stroke="black" strokewidth="1" fill="white" />
<circle cx="126" cy="435" r="3.61702" stroke="black" strokewidth="1" fill="white" />
<circle cx="629" cy="340" r="2.14628" stroke="black" strokewidth="1" fill="white" />
<circle cx="225" cy="214" r="2.12549" stroke="black" strokewidth="1" fill="white" />
<circle cx="350" cy="143" r="1.23923" stroke="black" strokewidth="1" fill="white" />
<circle cx="454" cy="203" r="3.85919" stroke="black" strokewidth="1" fill="white" />
<circle cx="336" cy="10" r="2.4409" stroke="black" strokewidth="1" fill="white" />
<circle cx="457" cy="1" r="3.39967" stroke="black" strokewidth="1" fill="white" />
<circle cx="525" cy="149" r="2.29954" stroke="black" strokewidth="1" fill="white" />
<circle cx="493" cy="330" r="3.6552" stroke="black" strokewidth="1" fill="white" />
<circle cx="93" cy="488" r="1.79516" stroke="black" strokewidth="1" fill="white" />
<circle cx="647" cy="443" r="2.72408" stroke="black" strokewidth="1" fill="white" />
<circle cx="591" cy="191" r="2.53182" stroke="black" strokewidth="1" fill="white" />
<circle cx="76" cy="86" r="1.88598" stroke="black" strokewidth="1" fill="white" />
<circle cx="365" cy="519" r="2.01709" stroke="black" strokewidth="1" fill="white" />
<circle cx="615" cy="207" r="2.87725" stroke="black" strokewidth="1" fill="white" />
<circle cx="285" cy="75" r="2.5558" stroke="black" strokewidth="1" fill="white" />
<circle cx="465" cy="147" r="2.0343" stroke="black" strokewidth="1" fill="white" />
<circle cx="140" cy="87" r="3.73019" stroke="black" strokewidth="1" fill="white" />
<circle cx="4" cy="72" r="3.70803" stroke="black" strokewidth="1" fill="white" />
<circle cx="135" cy="207" r="1.34993" stroke="black" strokewidth="1" fill="white" />
<circle cx="163" cy="298" r="2.93558" stroke="black" strokewidth="1" fill="white" />
<circle cx="619" cy="22" r="2.98273" stroke="black" strokewidth="1" fill="white" />
<circle cx="146" cy="479" r="1.08057" stroke="black" strokewidth="1" fill="white" />
<circle cx="193" cy="408" r="2.61321" stroke="black" strokewidth="1" fill="white" />
<circle cx="547" cy="242" r="1.39378" stroke="black" strokewidth="1" fill="white" />
<circle cx="363" cy="215" r="3.49452" stroke="black" strokewidth="1" fill="white" />
<circle cx="219" cy="443" r="1.57524" stroke="black" strokewidth="1" fill="white" />
<circle cx="341" cy="327" r="3.71764" stroke="black" strokewidth="1" fill="white" />
<circle cx="516" cy="349" r="2.81857" stroke="black" strokewidth="1" fill="white" />
<circle cx="530" cy="501" r="1.32429" stroke="black" strokewidth="1" fill="white" />
<circle cx="341" cy="397" r="1.8511" stroke="black" strokewidth="1" fill="white" />
<circle cx="330" cy="385" r="2.78506" stroke="black" strokewidth="1" fill="white" />
<circle cx="420" cy="421" r="1.54045" stroke="black" strokewidth="1" fill="white" />
<circle cx="66" cy="72" r="2.23792" stroke="black" strokewidth="1" fill="white" />
<circle cx="4" cy="475" r="3.07776" stroke="black" strokewidth="1" fill="white" />
<circle cx="333" cy="71" r="3.91797" stroke="black" strokewidth="1" fill="white" />
<circle cx="283" cy="159" r="1.95996" stroke="black" strokewidth="1" fill="white" />
<circle cx="231" cy="247" r="1.55885" stroke="black" strokewidth="1" fill="white" />
<circle cx="37" cy="68" r="3.34089" stroke="black" strokewidth="1" fill="white" />
<circle cx="679" cy="30" r="2.11478" stroke="black" strokewidth="1" fill="white" />
<circle cx="268" cy="376" r="3.1868" stroke="black" strokewidth="1" fill="white" />
<circle cx="176" cy="374" r="1.7828" stroke="black" strokewidth="1" fill="white" />
<circle cx="331" cy="61" r="2.429" stroke="black" strokewidth="1" fill="white" />
<circle cx="494" cy="471" r="2.90399" stroke="black" strokewidth="1" fill="white" />
<circle cx="123" cy="359" r="3.32551" stroke="black" strokewidth="1" fill="white" />
<circle cx="98" cy="74" r="3.73705" stroke="black" strokewidth="1" fill="white" />
<circle cx="238" cy="451" r="3.90762" stroke="black" strokewidth="1" fill="white" />
<circle cx="623" cy="201" r="1.22385" stroke="black" strokewidth="1" fill="white" />
<circle cx="285" cy="322" r="3.06421" stroke="black" strokewidth="1" fill="white" />
<circle cx="169" cy="460" r="1.56563" stroke="black" strokewidth="1" fill="white" />
<circle cx="65" cy="66" r="3.88574" stroke="black" strokewidth="1" fill="white" />
<circle cx="188" cy="446" r="1.58385" stroke="black" strokewidth="1" fill="white" />
<circle cx="78" cy="141" r="1.72182" stroke="black" strokewidth="1" fill="white" />
<circle cx="159" cy="163" r="1.32264" stroke="black" strokewidth="1" fill="white" />
<circle cx="186" cy="348" r="2.38368" stroke="black" strokewidth="1" fill="white" />
<circle cx="322" cy="444" r="1.03442" stroke="black" strokewidth="1" fill="white" />
<circle cx="199" cy="247" r="1.41108" stroke="black" strokewidth="1" fill="white" />
<circle cx="633" cy="485" r="3.4536" stroke="black" strokewidth="1" fill="white" />
<circle cx="656" cy="349" r="2.70504" stroke="black" strokewidth="1" fill="white" />
<circle cx="397" cy="406" r="1.98074" stroke="black" strokewidth="1" fill="white" />
<circle cx="199" cy="518" r="3.47273" stroke="black" strokewidth="1" fill="white" />
<circle cx="519" cy="391" r="1.9465" stroke="black" strokewidth="1" fill="white" />
<circle cx="408" cy="254" r="1.72146" stroke="black" strokewidth="1" fill="white" />
<circle cx="367" cy="498" r="3.36717" stroke="black" strokewidth="1" fill="white" />
<circle cx="517" cy="422" r="3.83685" stroke="black" strokewidth="1" fill="white" />
<circle cx="68" cy="491" r="3.43556" stroke="black" strokewidth="1" fill="white" />
<circle cx="576" cy="175" r="2.47633" stroke="black" strokewidth="1" fill="white" />
<circle cx="662" cy="500" r="1.26798" stroke="black" strokewidth="1" fill="white" />
<circle cx="282" cy="494" r="1.4695" stroke="black" strokewidth="1" fill="white" />
<circle cx="630" cy="170" r="2.03494" stroke="black" strokewidth="1" fill="white" />
<circle cx="40" cy="218" r="1.0119" stroke="black" strokewidth="1" fill="white" />
<circle cx="636" cy="115" r="1.4131" stroke="black" strokewidth="1" fill="white" />
<circle cx="36" cy="3" r="2.55892" stroke="black" strokewidth="1" fill="white" />
<circle cx="31" cy="435" r="3.18891" stroke="black" strokewidth="1" fill="white" />
<circle cx="174" cy="268" r="2.82864" stroke="black" strokewidth="1" fill="white" />
<circle cx="141" cy="506" r="2.67968" stroke="black" strokewidth="1" fill="white" />
<circle cx="305" cy="223" r="1.59731" stroke="black" strokewidth="1" fill="white" />
<circle cx="45" cy="203" r="2.31419" stroke="black" strokewidth="1" fill="white" />
<circle cx="338" cy="495" r="2.87991" stroke="black" strokewidth="1" fill="white" />
<circle cx="540" cy="386" r="2.08274" stroke="black" strokewidth="1" fill="white" />
<circle cx="481" cy="516" r="3.01733" stroke="black" strokewidth="1" fill="white" />
<circle cx="390" cy="109" r="2.52083" stroke="black" strokewidth="1" fill="white" />
<circle cx="514" cy="462" r="2.51222" stroke="black" strokewidth="1" fill="white" />
<circle cx="62" cy="23" r="1.29499" stroke="black" strokewidth="1" fill="white" />
<circle cx="199" cy="125" r="1.53551" stroke="black" strokewidth="1" fill="white" />
<circle cx="184" cy="91" r="1.18888" stroke="black" strokewidth="1" fill="white" />
<circle cx="630" cy="319" r="3.25318" stroke="black" strokewidth="1" fill="white" />
<circle cx="154" cy="352" r="2.22712" stroke="black" strokewidth="1" fill="white" />
<circle cx="649" cy="205" r="2.86233" stroke="black" strokewidth="1" fill="white" />
<circle cx="255" cy="94" r="2.68471" stroke="black" strokewidth="1" fill="white" />
<circle cx="527" cy="103" r="2.8562" stroke="black" strokewidth="1" fill="white" />
<circle cx="352" cy="243" r="1.6993" stroke="black" strokewidth="1" fill="white" />
<circle cx="407" cy="300" r="2.93338" stroke="black" strokewidth="1" fill="white" />
<circle cx="190" cy="19" r="1.9964" stroke="black" strokewidth="1" fill="white" />
<circle cx="668" cy="458" r="2.5071" stroke="black" strokewidth="1" fill="white" />
<circle cx="161" cy="265" r="2.73672" stroke="black" strokewidth="1" fill="white" />
<circle cx="96" cy="470" r="1.3177" stroke="black" strokewidth="1" fill="white" />
<circle cx="99" cy="7" r="2.57128" stroke="black" strokewidth="1" fill="white" />
<circle cx="605" cy="249" r="2.59966" stroke="black" strokewidth="1" fill="white" />
<circle cx="39" cy="486" r="1.51857" stroke="black" strokewidth="1" fill="white" />
<circle cx="404" cy="38" r="2.96121" stroke="black" strokewidth="1" fill="white" />
<circle cx="518" cy="253" r="1.13514" stroke="black" strokewidth="1" fill="white" />
<circle cx="435" cy="312" r="1.98441" stroke="black" strokewidth="1" fill="white" />
<circle cx="550" cy="156" r="3.51329" stroke="black" strokewidth="1" fill="white" />
<circle cx="629" cy="90" r="2.91919" stroke="black" strokewidth="1" fill="white" />
<circle cx="226" cy="365" r="2.77544" stroke="black" strokewidth="1" fill="white" />
<circle cx="464" cy="280" r="2.09977" stroke="black" strokewidth="1" fill="white" />
<circle cx="626" cy="289" r="3.82998" stroke="black" strokewidth="1" fill="white" />
<circle cx="183" cy="191" r="1.23594" stroke="black" strokewidth="1" fill="white" />
<circle cx="598" cy="128" r="2.06919" stroke="black" strokewidth="1" fill="white" />
<circle cx="580" cy="377" r="3.8894" stroke="black" strokewidth="1" fill="white" />
<circle cx="418" cy="358" r="3.31809" stroke="black" strokewidth="1" fill="white" />
<circle cx="75" cy="8" r="3.62755" stroke="black" strokewidth="1" fill="white" />
<circle cx="365" cy="161" r="2.53749" stroke="black" strokewidth="1" fill="white" />
<circle cx="384" cy="468" r="1.91299" stroke="black" strokewidth="1" fill="white" />
<circle cx="492" cy="489" r="1.4467" stroke="black" strokewidth="1" fill="white" />
<circle cx="46" cy="11" r="1.12195" stroke="black" strokewidth="1" fill="white" />
<circle cx="548" cy="14" r="1.20664" stroke="black" strokewidth="1" fill="white" />
<circle cx="550" cy="207" r="2.55745" stroke="black" strokewidth="1" fill="white" />
<circle cx="314" cy="453" r="1.49403" stroke="black" strokewidth="1" fill="white" />
<circle cx="648" cy="500" r="1.31697" stroke="black" strokewidth="1" fill="white" />
<circle cx="252" cy="160" r="1.55931" stroke="black" strokewidth="1" fill="white" />
<circle cx="552" cy="65" r="1.75259" stroke="black" strokewidth="1" fill="white" />
<circle cx="509" cy="17" r="2.07862" stroke="black" strokewidth="1" fill="white" />
<circle cx="370" cy="381" r="2.40693" stroke="black" strokewidth="1" fill="white" />
<circle cx="488" cy="152" r="2.65386" stroke="black" strokewidth="1" fill="white" />
<circle cx="505" cy="241" r="3.10001" stroke="black" strokewidth="1" fill="white" />
<circle cx="505" cy="231" r="1.56389" stroke="black" strokewidth="1" fill="white" />
<circle cx="415" cy="117" r="3.6389" stroke="black" strokewidth="1" fill="white" />
<circle cx="536" cy="379" r="3.69631" stroke="black" strokewidth="1" fill="white" />
<circle cx="426" cy="265" r="2.82022" stroke="black" strokewidth="1" fill="white" />
<circle cx="256" cy="462" r="1.36686" stroke="black" strokewidth="1" fill="white" />
<circle cx="327" cy="511" r="3.35234" stroke="black" strokewidth="1" fill="white" />
<circle cx="534" cy="423" r="1.84396" stroke="black" strokewidth="1" fill="white" />
<circle cx="590" cy="160" r="1.42354" stroke="black" strokewidth="1" fill="white" />
<circle cx="667" cy="10" r="1.70241" stroke="black" strokewidth="1" fill="white" />
<circle cx="464" cy="30" r="3.25904" stroke="black" strokewidth="1" fill="white" />
<circle cx="199" cy="102" r="1.52315" stroke="black" strokewidth="1" fill="white" />
<circle cx="312" cy="23" r="1.51335" stroke="black" strokewidth="1" fill="white" />
<circle cx="653" cy="155" r="2.7944" stroke="black" strokewidth="1" fill="white" />
<circle cx="150" cy="72" r="3.11951" stroke="black" strokewidth="1" fill="white" />
<circle cx="150" cy="98" r="1.04129" stroke="black" strokewidth="1" fill="white" />
<circle cx="323" cy="67" r="3.62462" stroke="black" strokewidth="1" fill="white" />
<circle cx="649" cy="452" r="2.08438" stroke="black" strokewidth="1" fill="white" />
<circle cx="644" cy="208" r="1.47188" stroke="black" strokewidth="1" fill="white" />
<circle cx="605" cy="418" r="1.77584" stroke="black" strokewidth="1" fill="white" />
<circle cx="634" cy="508" r="1.50722" stroke="black" strokewidth="1" fill="white" />
<circle cx="207" cy="149" r="3.47081" stroke="black" strokewidth="1" fill="white" />
<circle cx="140" cy="391" r="1.57039" stroke="black" strokewidth="1" fill="white" />
<circle cx="85" cy="109" r="2.71996" stroke="black" strokewidth="1" fill="white" />
<circle cx="586" cy="285" r="3.75875" stroke="black" strokewidth="1" fill="white" />
<circle cx="290" cy="163" r="2.107" stroke="black" strokewidth="1" fill="white" />
<circle cx="100" cy="28" r="2.18848" stroke="black" strokewidth="1" fill="white" />
<circle cx="224" cy="493" r="1.66753" stroke="black" strokewidth="1" fill="white" />
<circle cx="661" cy="244" r="2.21192" stroke="black" strokewidth="1" fill="white" />
<circle cx="13" cy="262" r="2.79284" stroke="black" strokewidth="1" fill="white" />
<circle cx="538" cy="178" r="2.44346" stroke="black" strokewidth="1" fill="white" />
<circle cx="228" cy="502" r="1.81759" stroke="black" strokewidth="1" fill="white" />
<circle cx="64" cy="291" r="3.98572" stroke="black" strokewidth="1" fill="white" />
<circle cx="542" cy="19" r="2.48769" stroke="black" strokewidth="1" fill="white" />
<circle cx="353" cy="27" r="3.29951" stroke="black" strokewidth="1" fill="white" />
<circle cx="626" cy="503" r="3.08032" stroke="black" strokewidth="1" fill="white" />
<circle cx="135" cy="456" r="2.60387" stroke="black" strokewidth="1" fill="white" />
<circle cx="547" cy="228" r="3.9794" stroke="black" strokewidth="1" fill="white" />
<circle cx="140" cy="323" r="1.90374" stroke="black" strokewidth="1" fill="white" />
<circle cx="254" cy="55" r="3.86486" stroke="black" strokewidth="1" fill="white" />
<circle cx="544" cy="489" r="2.08841" stroke="black" strokewidth="1" fill="white" />
<circle cx="12" cy="189" r="3.23688" stroke="black" strokewidth="1" fill="white" />
<circle cx="507" cy="280" r="3.41386" stroke="black" strokewidth="1" fill="white" />
<circle cx="8" cy="348" r="1.63155" stroke="black" strokewidth="1" fill="white" />
<circle cx="78" cy="131" r="2.43376" stroke="black" strokewidth="1" fill="white" />
<circle cx="488" cy="312" r="2.48146" stroke="black" strokewidth="1" fill="white" />
<circle cx="156" cy="479" r="1.46986" stroke="black" strokewidth="1" fill="white" />
<circle cx="236" cy="345" r="2.98868" stroke="black" strokewidth="1" fill="white" />
<circle cx="664" cy="484" r="3.36808" stroke="black" strokewidth="1" fill="white" />
<circle cx="491" cy="100" r="3.50514" stroke="black" strokewidth="1" fill="white" />
<circle cx="285" cy="498" r="2.97192" stroke="black" strokewidth="1" fill="white" />
<circle cx="455" cy="407" r="1.61516" stroke="black" strokewidth="1" fill="white" />
<circle cx="497" cy="151" r="3.80801" stroke="black" strokewidth="1" fill="white" />
<circle cx="599" cy="282" r="3.26783" stroke="black" strokewidth="1" fill="white" />
<circle cx="559" cy="64" r="3.3137" stroke="black" strokewidth="1" fill="white" />
<circle cx="603" cy="6" r="3.79144" stroke="black" strokewidth="1" fill="white" />
<circle cx="433" cy="224" r="2.91296" stroke="black" strokewidth="1" fill="white" />
<circle cx="130" cy="17" r="3.30656" stroke="black" strokewidth="1" fill="white" />
<circle cx="189" cy="324" r="2.73379" stroke="black" strokewidth="1" fill="white" />
<circle cx="556" cy="83" r="2.81811" stroke="black" strokewidth="1" fill="white" />
<circle cx="155" cy="319" r="1.14548" stroke="black" strokewidth="1" fill="white" />
<circle cx="504" cy="314" r="3.98471" stroke="black" strokewidth="1" fill="white" />
<circle cx="533" cy="483" r="2.93667" stroke="black" strokewidth="1" fill="white" />
<circle cx="266" cy="268" r="3.10514" stroke="black" strokewidth="1" fill="white" />
<circle cx="33" cy="201" r="1.24345" stroke="black" strokewidth="1" fill="white" />
<circle cx="362" cy="414" r="1.11573" stroke="black" strokewidth="1" fill="white" />
<circle cx="238" cy="383" r="2.64251" stroke="black" strokewidth="1" fill="white" />
<circle cx="105" cy="10" r="1.21186" stroke="black" strokewidth="1" fill="white" />
<circle cx="142" cy="229" r="1.51061" stroke="black" strokewidth="1" fill="white" />
<circle cx="343" cy="447" r="3.99094" stroke="black" strokewidth="1" fill="white" />
<circle cx="211" cy="265" r="3.2204" stroke="black" strokewidth="1" fill="white" />
<circle cx="487" cy="95" r="3.61986" stroke="black" strokewidth="1" fill="white" />
<circle cx="162" cy="411" r="2.33186" stroke="black" strokewidth="1" fill="white" />
<circle cx="464" cy="252" r="2.3412" stroke="black" strokewidth="1" fill="white" />
<circle cx="288" cy="333" r="1.06226" stroke="black" strokewidth="1" fill="white" />
<circle cx="621" cy="497" r="3.51878" stroke="black" strokewidth="1" fill="white" />
<circle cx="563" cy="356" r="3.31938" stroke="black" strokewidth="1" fill="white" />
<circle cx="169" cy="306" r="3.26847" stroke="black" strokewidth="1" fill="white" />
<circle cx="475" cy="263" r="1.85275" stroke="black" strokewidth="1" fill="white" />
<circle cx="225" cy="38" r="2.38789" stroke="black" strokewidth="1" fill="white" />
<circle cx="354" cy="389" r="2.996" stroke="black" strokewidth="1" fill="white" />
<circle cx="310" cy="384" r="2.67217" stroke="black" strokewidth="1" fill="white" />
<circle cx="580" cy="295" r="3.39216" stroke="black" strokewidth="1" fill="white" />
<circle cx="42" cy="424" r="1.65325" stroke="black" strokewidth="1" fill="white" />
<circle cx="196" cy="172" r="2.42167" stroke="black" strokewidth="1" fill="white" />
<circle cx="500" cy="441" r="3.20731" stroke="black" strokewidth="1" fill="white" />
<circle cx="48" cy="248" r="3.1283" stroke="black" strokewidth="1" fill="white" />
<circle cx="165" cy="378" r="2.20267" stroke="black" strokewidth="1" fill="white" />
<circle cx="675" cy="112" r="3.66967" stroke="black" strokewidth="1" fill="white" />
<circle cx="402" cy="175" r="3.30171" stroke="black" strokewidth="1" fill="white" />
<circle cx="100" cy="300" r="15" stroke="black" strokewidth="1" fill="white" />
<circle cx="100" cy="335" r="25" stroke="black" strokewidth="1" fill="white" />
<circle cx="100" cy="390" r="40" stroke="black" strokewidth="1" fill="white" />
<circle cx="95" cy="298" r="2" stroke="black" strokewidth="1" fill="white" />
<circle cx="105" cy="298" r="2" stroke="black" strokewidth="1" fill="white" />
<line x1="96" y1="305" x2="104" y2="305" style="stroke:rgb(255,0,0);stroke-width:2"/>
<line x1="80" y1="320" x2="60" y2="310" style="stroke:rgb(255,0,0);stroke-width:2"/>
<line x1="120" y1="320" x2="140" y2="310" style="stroke:rgb(255,0,0);stroke-width:2"/>
<circle cx="250" cy="300" r="15" stroke="black" strokewidth="1" fill="white" />
<circle cx="250" cy="335" r="25" stroke="black" strokewidth="1" fill="white" />
<circle cx="250" cy="390" r="40" stroke="black" strokewidth="1" fill="white" />
<circle cx="245" cy="298" r="2" stroke="black" strokewidth="1" fill="white" />
<circle cx="255" cy="298" r="2" stroke="black" strokewidth="1" fill="white" />
<line x1="246" y1="305" x2="254" y2="305" style="stroke:rgb(255,0,0);stroke-width:2"/>
<line x1="230" y1="320" x2="210" y2="310" style="stroke:rgb(255,0,0);stroke-width:2"/>
<line x1="270" y1="320" x2="290" y2="310" style="stroke:rgb(255,0,0);stroke-width:2"/>
<circle cx="400" cy="300" r="15" stroke="black" strokewidth="1" fill="white" />
<circle cx="400" cy="335" r="25" stroke="black" strokewidth="1" fill="white" />
<circle cx="400" cy="390" r="40" stroke="black" strokewidth="1" fill="white" />
<circle cx="395" cy="298" r="2" stroke="black" strokewidth="1" fill="white" />
<circle cx="405" cy="298" r="2" stroke="black" strokewidth="1" fill="white" />
<line x1="396" y1="305" x2="404" y2="305" style="stroke:rgb(255,0,0);stroke-width:2"/>
<line x1="380" y1="320" x2="360" y2="310" style="stroke:rgb(255,0,0);stroke-width:2"/>
<line x1="420" y1="320" x2="440" y2="310" style="stroke:rgb(255,0,0);stroke-width:2"/>
<circle cx="550" cy="300" r="15" stroke="black" strokewidth="1" fill="white" />
<circle cx="550" cy="335" r="25" stroke="black" strokewidth="1" fill="white" />
<circle cx="550" cy="390" r="40" stroke="black" strokewidth="1" fill="white" />
<circle cx="545" cy="298" r="2" stroke="black" strokewidth="1" fill="white" />
<circle cx="555" cy="298" r="2" stroke="black" strokewidth="1" fill="white" />
<line x1="546" y1="305" x2="554" y2="305" style="stroke:rgb(255,0,0);stroke-width:2"/>
<line x1="530" y1="320" x2="510" y2="310" style="stroke:rgb(255,0,0);stroke-width:2"/>
<line x1="570" y1="320" x2="590" y2="310" style="stroke:rgb(255,0,0);stroke-width:2"/>
<line x1="10" y1="58" x2="10" y2="10" style="stroke:rgb(255,0,0);stroke-width:2"/>
<line x1="10" y1="34" x2="42" y2="34" style="stroke:rgb(255,0,0);stroke-width:2"/>
<line x1="42" y1="10" x2="42" y2="58" style="stroke:rgb(255,0,0);stroke-width:2"/>
<line x1="58" y1="58" x2="58" y2="26" style="stroke:rgb(255,0,0);stroke-width:2"/>
<line x1="58" y1="26" x2="74" y2="10" style="stroke:rgb(255,0,0);stroke-width:2"/>
<line x1="74" y1="10" x2="90" y2="26" style="stroke:rgb(255,0,0);stroke-width:2"/>
<line x1="90" y1="26" x2="90" y2="58" style="stroke:rgb(255,0,0);stroke-width:2"/>
<line x1="58" y1="42" x2="90" y2="42" style="stroke:rgb(255,0,0);stroke-width:2"/>
<line x1="106" y1="58" x2="106" y2="10" style="stroke:rgb(255,0,0);stroke-width:2"/>
<line x1="106" y1="10" x2="138" y2="10" style="stroke:rgb(255,0,0);stroke-width:2"/>
<line x1="138" y1="10" x2="138" y2="34" style="stroke:rgb(255,0,0);stroke-width:2"/>
<line x1="138" y1="34" x2="106" y2="38" style="stroke:rgb(255,0,0);stroke-width:2"/>
<line x1="154" y1="58" x2="154" y2="10" style="stroke:rgb(255,0,0);stroke-width:2"/>
<line x1="154" y1="10" x2="186" y2="10" style="stroke:rgb(255,0,0);stroke-width:2"/>
<line x1="186" y1="10" x2="186" y2="34" style="stroke:rgb(255,0,0);stroke-width:2"/>
<line x1="186" y1="34" x2="154" y2="38" style="stroke:rgb(255,0,0);stroke-width:2"/>
<line x1="202" y1="10" x2="218" y2="34" style="stroke:rgb(255,0,0);stroke-width:2"/>
<line x1="218" y1="34" x2="234" y2="10" style="stroke:rgb(255,0,0);stroke-width:2"/>
<line x1="218" y1="34" x2="218" y2="58" style="stroke:rgb(255,0,0);stroke-width:2"/>
<line x1="298" y1="58" x2="298" y2="10" style="stroke:rgb(255,0,0);stroke-width:2"/>
<line x1="298" y1="10" x2="330" y2="58" style="stroke:rgb(255,0,0);stroke-width:2"/>
<line x1="330" y1="58" x2="330" y2="10" style="stroke:rgb(255,0,0);stroke-width:2"/>
<line x1="378" y1="58" x2="346" y2="58" style="stroke:rgb(255,0,0);stroke-width:2"/>
<line x1="346" y1="58" x2="346" y2="10" style="stroke:rgb(255,0,0);stroke-width:2"/>
<line x1="346" y1="10" x2="378" y2="10" style="stroke:rgb(255,0,0);stroke-width:2"/>
<line x1="346" y1="34" x2="370" y2="34" style="stroke:rgb(255,0,0);stroke-width:2"/>
<line x1="394" y1="10" x2="402" y2="58" style="stroke:rgb(255,0,0);stroke-width:2"/>
<line x1="402" y1="58" x2="410" y2="42" style="stroke:rgb(255,0,0);stroke-width:2"/>
<line x1="410" y1="42" x2="418" y2="58" style="stroke:rgb(255,0,0);stroke-width:2"/>
<line x1="418" y1="58" x2="426" y2="10" style="stroke:rgb(255,0,0);stroke-width:2"/>
<line x1="490" y1="10" x2="506" y2="34" style="stroke:rgb(255,0,0);stroke-width:2"/>
<line x1="506" y1="34" x2="522" y2="10" style="stroke:rgb(255,0,0);stroke-width:2"/>
<line x1="506" y1="34" x2="506" y2="58" style="stroke:rgb(255,0,0);stroke-width:2"/>
<line x1="570" y1="58" x2="538" y2="58" style="stroke:rgb(255,0,0);stroke-width:2"/>
<line x1="538" y1="58" x2="538" y2="10" style="stroke:rgb(255,0,0);stroke-width:2"/>
<line x1="538" y1="10" x2="570" y2="10" style="stroke:rgb(255,0,0);stroke-width:2"/>
<line x1="538" y1="34" x2="562" y2="34" style="stroke:rgb(255,0,0);stroke-width:2"/>
<line x1="586" y1="58" x2="586" y2="26" style="stroke:rgb(255,0,0);stroke-width:2"/>
<line x1="586" y1="26" x2="602" y2="10" style="stroke:rgb(255,0,0);stroke-width:2"/>
<line x1="602" y1="10" x2="618" y2="26" style="stroke:rgb(255,0,0);stroke-width:2"/>
<line x1="618" y1="26" x2="618" y2="58" style="stroke:rgb(255,0,0);stroke-width:2"/>
<line x1="586" y1="42" x2="618" y2="42" style="stroke:rgb(255,0,0);stroke-width:2"/>
<line x1="634" y1="58" x2="634" y2="10" style="stroke:rgb(255,0,0);stroke-width:2"/>
<line x1="634" y1="10" x2="666" y2="10" style="stroke:rgb(255,0,0);stroke-width:2"/>
<line x1="666" y1="10" x2="666" y2="34" style="stroke:rgb(255,0,0);stroke-width:2"/>
<line x1="666" y1="34" x2="634" y2="38" style="stroke:rgb(255,0,0);stroke-width:2"/>
<line x1="650" y1="38" x2="666" y2="58" style="stroke:rgb(255,0,0);stroke-width:2"/>
<line x1="60" y1="480" x2="68" y2="488" style="stroke:rgb(255,0,0);stroke-width:2"/>
<line x1="68" y1="488" x2="92" y2="488" style="stroke:rgb(255,0,0);stroke-width:2"/>
<line x1="92" y1="488" x2="92" y2="468" style="stroke:rgb(255,0,0);stroke-width:2"/>
<line x1="92" y1="468" x2="60" y2="460" style="stroke:rgb(255,0,0);stroke-width:2"/>
<line x1="60" y1="460" x2="60" y2="440" style="stroke:rgb(255,0,0);stroke-width:2"/>
<line x1="60" y1="440" x2="84" y2="440" style="stroke:rgb(255,0,0);stroke-width:2"/>
<line x1="84" y1="440" x2="92" y2="448" style="stroke:rgb(255,0,0);stroke-width:2"/>
<line x1="108" y1="488" x2="108" y2="456" style="stroke:rgb(255,0,0);stroke-width:2"/>
<line x1="108" y1="456" x2="124" y2="440" style="stroke:rgb(255,0,0);stroke-width:2"/>
<line x1="124" y1="440" x2="140" y2="456" style="stroke:rgb(255,0,0);stroke-width:2"/>
<line x1="140" y1="456" x2="140" y2="488" style="stroke:rgb(255,0,0);stroke-width:2"/>
<line x1="108" y1="472" x2="140" y2="472" style="stroke:rgb(255,0,0);stroke-width:2"/>
<line x1="156" y1="488" x2="188" y2="440" style="stroke:rgb(255,0,0);stroke-width:2"/>
<line x1="156" y1="440" x2="188" y2="488" style="stroke:rgb(255,0,0);stroke-width:2"/>
<line x1="204" y1="488" x2="236" y2="488" style="stroke:rgb(255,0,0);stroke-width:2"/>
<line x1="220" y1="488" x2="220" y2="440" style="stroke:rgb(255,0,0);stroke-width:2"/>
<line x1="204" y1="440" x2="236" y2="440" style="stroke:rgb(255,0,0);stroke-width:2"/>
<line x1="252" y1="488" x2="252" y2="440" style="stroke:rgb(255,0,0);stroke-width:2"/>
<line x1="252" y1="440" x2="284" y2="440" style="stroke:rgb(255,0,0);stroke-width:2"/>
<line x1="284" y1="440" x2="284" y2="488" style="stroke:rgb(255,0,0);stroke-width:2"/>
<line x1="284" y1="488" x2="252" y2="488" style="stroke:rgb(255,0,0);stroke-width:2"/>
<line x1="300" y1="488" x2="300" y2="440" style="stroke:rgb(255,0,0);stroke-width:2"/>
<line x1="300" y1="440" x2="332" y2="488" style="stroke:rgb(255,0,0);stroke-width:2"/>
<line x1="332" y1="488" x2="332" y2="440" style="stroke:rgb(255,0,0);stroke-width:2"/>
<line x1="396" y1="488" x2="428" y2="440" style="stroke:rgb(255,0,0);stroke-width:2"/>
<line x1="524" y1="488" x2="492" y2="488" style="stroke:rgb(255,0,0);stroke-width:2"/>
<line x1="492" y1="488" x2="492" y2="440" style="stroke:rgb(255,0,0);stroke-width:2"/>
<line x1="492" y1="440" x2="524" y2="440" style="stroke:rgb(255,0,0);stroke-width:2"/>
<line x1="544" y1="464" x2="568" y2="464" style="stroke:rgb(255,0,0);stroke-width:2"/>
<line x1="556" y1="452" x2="556" y2="476" style="stroke:rgb(255,0,0);stroke-width:2"/>
<line x1="592" y1="464" x2="616" y2="464" style="stroke:rgb(255,0,0);stroke-width:2"/>
<line x1="604" y1="452" x2="604" y2="476" style="stroke:rgb(255,0,0);stroke-width:2"/>
</svg>
